HIERARCHY
ROOT pelvis
{
  OFFSET 0 100 0
  CHANNELS 6 Xposition Yposition Zposition Zrotation Xrotation Yrotation
  JOINT pelvis_right_femur
  {
    OFFSET -10.78128 -3.44521 -0.5502486
    CHANNELS 3 Zrotation Xrotation Yrotation
    JOINT right_femur_tibia
    {
      OFFSET -0.8047443 -44.0398 -0.1307829
      CHANNELS 3 Zrotation Xrotation Yrotation
      JOINT right_tibia_foot
      {
        OFFSET 3.006224 -47.83518 -5
        CHANNELS 3 Zrotation Xrotation Yrotation
        End Site
        {
          OFFSET 0 -5 15
        }
      }
    }
  }
  JOINT pelvis_left_femur
  {
    OFFSET 10.78128 -3.44521 -0.5502486
    CHANNELS 3 Zrotation Xrotation Yrotation
    JOINT left_femur_tibia
    {
      OFFSET 0.8047443 -44.0398 -0.1307829
      CHANNELS 3 Zrotation Xrotation Yrotation
      JOINT left_tibia_foot
      {
        OFFSET -4.370144 -48.10324 -4.275266
        CHANNELS 3 Zrotation Xrotation Yrotation
        End Site
        {
          OFFSET 0 -5 15
        }
      }
    }
  }
  JOINT pelvis_spine1
  {
    OFFSET 0 6.468898 -3.129235
    CHANNELS 3 Zrotation Xrotation Yrotation
    JOINT spine1
    {
      OFFSET 0 23.15396 4.99043
      CHANNELS 3 Zrotation Xrotation Yrotation
      JOINT spine2
      {
        OFFSET 0 20.79997 -5.064912
        CHANNELS 3 Zrotation Xrotation Yrotation
        JOINT neck
        {
          OFFSET 0 14.38658 9.616178
          CHANNELS 3 Zrotation Xrotation Yrotation
          End Site
          {
            OFFSET 0 20 0
          }
        }
      }
      JOINT right_manubrium
      {
        OFFSET -5.722621 16.35077 3.967754
        CHANNELS 3 Zrotation Xrotation Yrotation
        JOINT right_clavicle
        {
          OFFSET -13.16364 1.694482 -4.693211
          CHANNELS 3 Zrotation Xrotation Yrotation
          JOINT right_humerus
          {
            OFFSET -28.5034 -0.3100689 -2.792744
            CHANNELS 3 Zrotation Xrotation Yrotation
            JOINT right_radius
            {
              OFFSET -25.15693 0.02248979 -1.271978
              CHANNELS 3 Zrotation Xrotation Yrotation
              End Site
              {
                OFFSET -15 0 0
              }
            }
          }
        }
      }
      JOINT left_manubrium
      {
        OFFSET 5.722621 16.35077 3.967754
        CHANNELS 3 Zrotation Xrotation Yrotation
        JOINT left_clavicle
        {
          OFFSET 13.16364 1.694482 -4.693211
          CHANNELS 3 Zrotation Xrotation Yrotation
          JOINT left_humerus
          {
            OFFSET 29.39168 -1.063119 -2.237045
            CHANNELS 3 Zrotation Xrotation Yrotation
            JOINT left_radius
            {
              OFFSET 24.59957 -0.9528479 0.9047498
              CHANNELS 3 Zrotation Xrotation Yrotation
              End Site
              {
                OFFSET 15 -0 -0
              }
            }
          }
        }
      }
    }
  }
}
MOTION
Frames: 13
Frame Time: 0.0416666666667
1083.318 103.0911 2935.336 5.98988 -5.201801 35.94709 0.02122618 0.326039 4.445819 -0 56.15945 -0 4.080449 1.586628 -6.947048 -5.242122 -5.391958 -7.501361 -0 21.20949 -0 -2.839812 -11.81856 16.58501 0.8422573 -4.55062 7.176159 0.8973315 17.94458 -5.967634 1.491562 19.00033 0.4114906 -0.4673995 -16.90465 3.248333 1.099324 -31.0277 14.06787 85.44417 14.35788 -7.744697 -0 0 31.5838 -24.49862 19.22691 17.38996 1.932927 -21.77096 -8.608491 -94.98148 9.478139 37.38404 0 0 -2.610391 6.600559 15.81788 5.432063
1087.284 104.0172 2939.491 5.944124 -5.458418 37.19504 0.2972457 -6.329985 3.731737 -0 53.60224 -0 3.144636 -0.1288817 -7.842607 -5.354802 -0.2506218 -7.879175 -0 18.69506 -0 -2.893711 -13.4887 16.02103 0.8416611 -4.547012 7.179069 0.8970507 17.94145 -5.972264 1.484836 19.00575 0.4211223 -0.4425542 -16.88343 3.232759 1.114228 -31.00901 14.0722 85.43205 14.36219 -7.764103 -0 0 31.57703 -24.49291 19.20867 17.35368 1.945707 -21.79301 -8.617236 -94.99257 9.467887 37.36215 0 0 -2.570397 6.616986 15.82231 5.389812
1091.056 104.3257 2943.521 5.830775 -5.387903 38.33718 0.2970255 -12.2744 3.035677 -0 47.06643 -0 2.326318 -2.07225 -8.476151 -5.310905 4.097936 -8.002235 -0 16.14377 -0 -2.962081 -15.23813 15.42679 0.8407279 -4.543771 7.182041 0.8969371 17.93835 -5.976164 1.478868 19.00978 0.4286051 -0.42143 -16.86388 3.218467 1.127994 -30.9942 14.07599 85.41954 14.36716 -7.778265 -0 0 31.57483 -24.48675 19.19299 17.32304 1.956145 -21.81065 -8.624379 -95.00219 9.458225 37.34593 0 0 -2.533889 6.629961 15.82498 5.354888
1094.784 104.0046 2947.604 5.711389 -5.075748 39.3365 0.1400373 -17.17796 2.413101 -0 38.83425 -0 1.882988 -3.633712 -8.973303 -5.24555 7.7984 -7.919865 -0 14.37078 -0 -3.152387 -16.85635 14.73515 0.8395223 -4.541078 7.184898 0.8969989 17.93544 -5.979094 1.474033 19.01215 0.4334613 -0.4053699 -16.84721 3.20636 1.139721 -30.98424 14.07898 85.40744 14.37253 -7.786285 -0 0 31.57735 -24.48044 19.1808 17.29993 1.963559 -21.82275 -8.629451 -95.00967 9.449757 37.33643 0 0 -2.503266 6.638648 15.82571 5.32951
1098.574 103.1793 2951.875 5.601397 -4.639553 40.19334 -0.03424563 -20.98128 1.928175 -0 30.62862 -0 1.766221 -4.63233 -9.41761 -5.205131 11.0548 -7.74464 -0 13.74425 -0 -3.556229 -18.17191 13.9882 0.8381841 -4.539061 7.187435 0.8972068 17.9329 -5.980935 1.470585 19.01287 0.4356134 -0.3950795 -16.83443 3.197166 1.148644 -30.97937 14.08101 85.39674 14.3779 -7.788266 -0 0 31.58377 -24.47442 19.17259 17.28527 1.967688 -21.829 -8.632269 -95.01462 9.443023 37.33363 0 0 -2.480448 6.642849 15.82465 5.314605
1102.493 102.0381 2956.428 5.498517 -4.197696 40.92125 -0.09290232 -23.66836 1.66688 -0 23.50238 -0 1.786778 -5.086804 -9.848229 -5.162556 13.98689 -7.585963 -0 14.38633 -0 -4.214263 -19.03778 13.26532 0.8368659 -4.53781 7.189456 0.8975205 17.93091 -5.981652 1.468678 19.01208 0.4351961 -0.3908271 -16.82628 3.191409 1.154225 -30.97943 14.08201 85.38835 14.38278 -7.784792 -0 0 31.59296 -24.46919 19.16862 17.27935 1.968537 -21.82953 -8.632836 -95.01684 9.438452 37.33696 0 0 -2.466743 6.642721 15.82213 5.310288
1106.57 100.7978 2961.322 5.403665 -3.876839 41.53061 0.09946189 -25.14438 1.721635 -0 18.16955 -0 1.728818 -5.124665 -10.26824 -5.047485 16.57864 -7.528759 -0 16.37188 -0 -5.127562 -19.29906 12.66107 0.8356931 -4.537389 7.190803 0.8979051 17.92962 -5.981255 1.468392 19.00995 0.4324172 -0.3926125 -16.82321 3.1894 1.156162 -30.98407 14.08194 85.38288 14.38674 -7.776558 -0 0 31.60387 -24.46516 19.16898 17.28215 1.96624 -21.82466 -8.631251 -95.01629 9.436327 37.34569 0 0 -2.462854 6.638565 15.81847 5.316259
1110.798 99.68774 2966.58 5.330421 -3.813459 42.01397 0.6626844 -25.25298 2.159294 -0 15.17325 -0 1.411724 -4.974024 -10.65185 -4.779945 18.65594 -7.606173 -0 19.79838 -0 -6.225693 -18.78945 12.29301 0.8347505 -4.537847 7.191367 0.8983362 17.92914 -5.979775 1.469747 19.00663 0.4274802 -0.4002981 -16.82544 3.191283 1.154351 -30.99294 14.08084 85.38072 14.38945 -7.764175 -0 0 31.61571 -24.46269 19.17368 17.29349 1.960982 -21.81478 -8.627646 -95.01304 9.436805 37.35916 0 0 -2.469002 6.630693 15.81397 5.332062
1115.134 98.92886 2972.164 5.313146 -4.122153 42.33353 1.633321 -23.88961 2.966462 -0 14.76007 -0 0.7680201 -4.945869 -10.95426 -4.326941 19.8868 -7.760183 -0 24.77315 -0 -7.323702 -17.38797 12.29568 0.8340828 -4.539217 7.191078 0.8988016 17.92956 -5.977255 1.472726 19.00227 0.4205698 -0.4136454 -16.83298 3.197055 1.148862 -31.00569 14.07874 85.38198 14.39064 -7.748139 -0 0 31.62794 -24.46203 19.18269 17.31311 1.952971 -21.80026 -8.622177 -95.00723 9.439932 37.37679 0 0 -2.484987 6.619408 15.80886 5.357153
1119.509 98.69639 2977.966 5.41304 -4.827863 42.42286 2.876457 -21.13775 4.00188 -0 16.57674 -0 -0.07563788 -5.329992 -11.11731 -3.767273 19.83079 -7.847005 -0 31.31771 -0 -8.150119 -15.1447 12.77352 0.8337023 -4.541511 7.189912 0.8992963 17.93096 -5.973773 1.477245 18.997 0.411905 -0.432223 -16.8456 3.206536 1.139964 -31.02187 14.07576 85.38655 14.39012 -7.728959 -0 0 31.6402 -24.46337 19.19587 17.34049 1.942499 -21.78156 -8.615059 -94.99914 9.445628 37.39797 0 0 -2.510096 6.605083 15.80337 5.390716
1123.84 99.06558 2983.808 5.700782 -5.8044 42.22019 4.070518 -17.30783 5.008788 -0 19.5006 -0 -0.8314163 -6.216856 -11.04769 -3.281478 18.05761 -7.756572 -0 39.12212 -0 -8.508258 -12.42284 13.72184 0.8336019 -4.544682 7.187894 0.8998131 17.93331 -5.969473 1.483114 18.99103 0.4018349 -0.4552309 -16.86273 3.219294 1.128169 -31.04078 14.07205 85.39407 14.3878 -7.707379 -0 0 31.65209 -24.46677 19.2128 17.37462 1.930039 -21.75947 -8.606627 -94.9892 9.453641 37.42181 0 0 -2.542963 6.588319 15.79774 5.431329
1128.048 99.96219 2989.484 6.188222 -6.789415 41.72136 4.854018 -12.82316 5.705342 -0 21.95718 -0 -1.261728 -7.405837 -10.59788 -3.012673 14.32639 -7.546783 -0 47.18857 -0 -8.461707 -9.894441 14.97996 0.8337675 -4.548589 7.185126 0.9003321 17.93654 -5.964592 1.490005 18.9847 0.3909158 -0.4813612 -16.88337 3.234587 1.114238 -31.06136 14.06785 85.40402 14.38372 -7.68456 -0 0 31.66305 -24.47216 19.23261 17.41365 1.916317 -21.73523 -8.597377 -94.97807 9.463513 37.44698 0 0 -2.581503 6.570056 15.79231 5.476705
1132.086 101.159 2994.846 6.749149 -7.498448 40.9952 5.076967 -8.080047 5.939305 -0 22.67798 -0 -1.336359 -8.551698 -9.666613 -2.913954 8.793235 -7.330476 -0 53.76405 -0 -8.281906 -8.217756 16.29177 0.8341854 -4.552976 7.18179 0.9008159 17.94044 -5.95946 1.497447 18.97845 0.379908 -0.5088162 -16.90615 3.251377 1.099128 -31.08217 14.06344 85.41572 14.37815 -7.66208 -0 0 31.67228 -24.47921 19.25396 17.45493 1.902289 -21.71052 -8.58795 -94.96652 9.47458 37.47173 0 0 -2.623032 6.551565 15.78747 5.523716
